<svg width="86" height="86" viewBox="0 0 86 86" fill="none" xmlns="http://www.w3.org/2000/svg">
<path d="M86 20C86 8.9543 77.0457 0 66 0H8C3.58172 0 0 3.58172 0 8V66C0 77.0457 8.95431 86 20 86H78C82.4183 86 86 82.4183 86 78V20Z" fill="white"/>
<g clip-path="url(#clip0_2044_78)">
<path d="M34.5 42.0001C34.5 41.6023 34.658 41.2208 34.9393 40.9395C35.2206 40.6582 35.6022 40.5001 36 40.5001H40.5V36.0001C40.5 35.6023 40.658 35.2208 40.9393 34.9395C41.2206 34.6582 41.6022 34.5001 42 34.5001C42.3978 34.5001 42.7794 34.6582 43.0607 34.9395C43.342 35.2208 43.5 35.6023 43.5 36.0001V40.5001H48C48.3978 40.5001 48.7794 40.6582 49.0607 40.9395C49.342 41.2208 49.5 41.6023 49.5 42.0001C49.5 42.3979 49.342 42.7795 49.0607 43.0608C48.7794 43.3421 48.3978 43.5001 48 43.5001H43.5V48.0001C43.5 48.3979 43.342 48.7795 43.0607 49.0608C42.7794 49.3421 42.3978 49.5001 42 49.5001C41.6022 49.5001 41.2206 49.3421 40.9393 49.0608C40.658 48.7795 40.5 48.3979 40.5 48.0001V43.5001H36C35.6022 43.5001 35.2206 43.3421 34.9393 43.0608C34.658 42.7795 34.5 42.3979 34.5 42.0001Z" fill="#244B80"/>
<path d="M41.9999 27.0001C44.839 27 47.6198 27.8055 50.0192 29.3232C52.4186 30.8408 54.338 33.0083 55.5544 35.5736C56.7707 38.1389 57.2341 40.9968 56.8906 43.815C56.5471 46.6332 55.4108 49.2961 53.6139 51.4941L58.5599 56.4401C58.841 56.7213 58.9989 57.1025 58.9989 57.5001C58.9989 57.8977 58.841 58.279 58.5599 58.5601C58.2787 58.8413 57.8974 58.9992 57.4999 58.9992C57.1023 58.9992 56.721 58.8413 56.4399 58.5601L51.4939 53.6141C49.6332 55.135 47.4343 56.1866 45.0823 56.6802C42.7304 57.1739 40.2943 57.0952 37.9791 56.4509C35.6639 55.8065 33.5374 54.6153 31.7787 52.9776C30.0199 51.3398 28.6805 49.3035 27.873 47.04C27.0656 44.7765 26.8138 42.3521 27.1389 39.971C27.4639 37.5899 28.3564 35.3218 29.741 33.3576C31.1257 31.3934 32.962 29.7906 35.0953 28.6843C37.2287 27.5779 39.5967 27.0003 41.9999 27.0001ZM29.9999 42.0001C29.9999 45.1827 31.2642 48.235 33.5146 50.4854C35.765 52.7358 38.8173 54.0001 41.9999 54.0001C45.1825 54.0001 48.2347 52.7358 50.4852 50.4854C52.7356 48.235 53.9999 45.1827 53.9999 42.0001C53.9999 38.8175 52.7356 35.7653 50.4852 33.5148C48.2347 31.2644 45.1825 30.0001 41.9999 30.0001C38.8173 30.0001 35.765 31.2644 33.5146 33.5148C31.2642 35.7653 29.9999 38.8175 29.9999 42.0001Z" fill="#244B80"/>
</g>
<defs>
<clipPath id="clip0_2044_78">
<rect width="32" height="32" fill="white" transform="translate(27 27.0001)"/>
</clipPath>
</defs>
</svg>
