<svg width="36" height="36" viewBox="0 0 36 36" fill="none" xmlns="http://www.w3.org/2000/svg">
<g clip-path="url(#clip0_3001_1403)">
<path d="M14.1086 4.43399C15.1943 3.5084 16.5743 3 18.0011 3C19.4278 3 20.8078 3.5084 21.8936 4.43399L22.4576 4.91399C22.9376 5.32349 23.5361 5.57099 24.1646 5.62199L24.9041 5.68049C26.3263 5.7937 27.6617 6.41005 28.6706 7.41893C29.6795 8.42782 30.2958 9.76321 30.409 11.1855L30.4661 11.925C30.5166 12.5543 30.7643 13.1517 31.1741 13.632L31.6556 14.196C32.5811 15.2817 33.0895 16.6618 33.0895 18.0885C33.0895 19.5152 32.5811 20.8953 31.6556 21.981L31.1756 22.5435C30.7646 23.0235 30.5156 23.6235 30.4661 24.252L30.4076 24.9915C30.294 26.4133 29.6778 27.7481 28.6692 28.7567C27.6607 29.7652 26.3258 30.3815 24.9041 30.495L24.1646 30.5535C23.5346 30.6045 22.9376 30.852 22.4576 31.2615L21.8936 31.743C20.8078 32.6686 19.4278 33.177 18.0011 33.177C16.5743 33.177 15.1943 32.6686 14.1086 31.743L13.5446 31.2615C13.0642 30.8518 12.4669 30.604 11.8376 30.5535L11.0981 30.495C9.67601 30.3818 8.34081 29.7657 7.33195 28.7571C6.3231 27.7485 5.7066 26.4135 5.59305 24.9915L5.53455 24.252C5.48478 23.6223 5.23754 23.0244 4.82805 22.5435L4.34805 21.9795C3.42247 20.8937 2.91406 19.5137 2.91406 18.087C2.91406 16.6603 3.42247 15.2802 4.34805 14.1945L4.82805 13.632C5.23725 13.1515 5.48448 12.5541 5.53455 11.925L5.59455 11.1855C5.70776 9.76321 6.32411 8.42782 7.33299 7.41893C8.34188 6.41005 9.67727 5.7937 11.0996 5.68049L11.8376 5.62049C12.4665 5.57084 13.0638 5.32414 13.5446 4.91549L14.1086 4.43399ZM23.5616 12.5265C23.2803 12.2453 22.8988 12.0873 22.5011 12.0873C22.1033 12.0873 21.7218 12.2453 21.4406 12.5265L12.4406 21.5265C12.1591 21.8078 12.0009 22.1893 12.0007 22.5872C12.0006 22.9851 12.1585 23.3668 12.4398 23.6482C12.7211 23.9297 13.1026 24.0879 13.5005 24.088C13.8984 24.0882 14.2801 23.9303 14.5616 23.649L23.5616 14.649C23.701 14.5097 23.8117 14.3442 23.8871 14.1622C23.9626 13.9801 24.0015 13.7849 24.0015 13.5877C24.0015 13.3906 23.9626 13.1954 23.8871 13.0133C23.8117 12.8312 23.701 12.6658 23.5616 12.5265ZM21.7511 19.5885C21.1543 19.5885 20.582 19.8255 20.1601 20.2475C19.7381 20.6695 19.5011 21.2418 19.5011 21.8385C19.5011 22.4352 19.7381 23.0075 20.1601 23.4295C20.582 23.8514 21.1543 24.0885 21.7511 24.0885C22.3478 24.0885 22.9201 23.8514 23.342 23.4295C23.764 23.0075 24.0011 22.4352 24.0011 21.8385C24.0011 21.2418 23.764 20.6695 23.342 20.2475C22.9201 19.8255 22.3478 19.5885 21.7511 19.5885ZM14.2511 12.0885C13.6543 12.0885 13.082 12.3255 12.6601 12.7475C12.2381 13.1695 12.0011 13.7418 12.0011 14.3385C12.0011 14.9352 12.2381 15.5075 12.6601 15.9295C13.082 16.3514 13.6543 16.5885 14.2511 16.5885C14.8478 16.5885 15.4201 16.3514 15.842 15.9295C16.264 15.5075 16.5011 14.9352 16.5011 14.3385C16.5011 13.7418 16.264 13.1695 15.842 12.7475C15.4201 12.3255 14.8478 12.0885 14.2511 12.0885Z" fill="#EB643B"/>
</g>
<defs>
<clipPath id="clip0_3001_1403">
<rect width="36" height="36" fill="white"/>
</clipPath>
</defs>
</svg>
