<svg width="16" height="14" viewBox="0 0 16 14" fill="none" xmlns="http://www.w3.org/2000/svg">
<path d="M16 7C16 6.72168 15.8968 6.45477 15.7131 6.25797C15.5294 6.06117 15.2802 5.95061 15.0204 5.95061H3.54349L7.83672 1.8356C7.93346 1.74399 8.01234 1.63279 8.06882 1.5084C8.12529 1.38401 8.15826 1.24889 8.16582 1.11081C8.17337 0.972724 8.15537 0.834403 8.11285 0.703798C8.07033 0.573193 8.00412 0.452882 7.91804 0.349785C7.83196 0.246688 7.7277 0.162839 7.61126 0.10306C7.49482 0.0432812 7.36849 0.00875268 7.23955 0.0014597C7.11061 -0.00583328 6.9816 0.0142531 6.85993 0.0605642C6.73826 0.106875 6.62634 0.178497 6.5306 0.27131L0.326507 6.21785C0.223784 6.31628 0.141608 6.43683 0.0853453 6.57161C0.0290833 6.70638 9.53674e-07 6.85236 9.53674e-07 7C9.53674e-07 7.14764 0.0290833 7.29362 0.0853453 7.4284C0.141608 7.56317 0.223784 7.68372 0.326507 7.78215L6.5306 13.7287C6.62634 13.8215 6.73826 13.8931 6.85993 13.9394C6.9816 13.9857 7.11061 14.0058 7.23955 13.9985C7.36849 13.9912 7.49482 13.9567 7.61126 13.8969C7.7277 13.8372 7.83196 13.7533 7.91804 13.6502C8.00412 13.5471 8.07033 13.4268 8.11285 13.2962C8.15537 13.1656 8.17337 13.0273 8.16582 12.8892C8.15826 12.7511 8.12529 12.616 8.06882 12.4916C8.01234 12.3672 7.93346 12.256 7.83672 12.1644L3.54349 8.04939H15.0204C15.149 8.04939 15.2764 8.02225 15.3953 7.96951C15.5141 7.91677 15.6221 7.83948 15.7131 7.74203C15.804 7.64459 15.8762 7.5289 15.9254 7.40158C15.9747 7.27427 16 7.13781 16 7Z" fill="#3563A2"/>
</svg>
